<?xml version="1.0" encoding="UTF-8" standalone="no"?>
<svg
   height="36"
   viewBox="0 -960 720 720"
   width="36">
  <path
     d="m 80,-880 v 560 z"
     id="path8" />
  <path
     d="m 493.79679,-480 h 60 v -240 h -120 v 60 h 60 z"
     id="path7" />
  <path
     id="path6"
     d="m 80,-960 c -21.99998,0 -40.81772,7.84897 -56.48438,23.51562 C 7.84897,-920.81772 0,-901.99998 0,-880 v 560 c 0,21.99998 7.84897,40.81772 23.51562,56.48438 C 39.18228,-247.84897 58.00002,-240 80,-240 h 560 c 21.99998,0 40.81772,-7.84897 56.48438,-23.51562 C 712.15103,-279.18228 720,-298.00002 720,-320 v -560 c 0,-21.99998 -7.84897,-40.81772 -23.51562,-56.48438 C 680.81772,-952.15103 661.99998,-960 640,-960 Z m 0,80 h 560 v 560 H 80 Z" />
  <path
     d="m 156.4537,-480 h 60 v -90 l 70,90 h 73 l -93,-120 93,-120 h -73 l -70,90 v -90 h -60 z"
     id="path1" />
</svg>
