<?xml version="1.0" encoding="UTF-8" standalone="no"?>
<svg
   height="18"
   viewBox="0 -960 720 720"
   width="18">
  <path
     d="m 80,-880 v 560 z"
     id="path5" />
  <path
     id="path4"
     d="m 80,-960 c -21.99998,0 -40.81772,7.84897 -56.48438,23.51562 C 7.84897,-920.81772 0,-901.99998 0,-880 v 560 c 0,21.99998 7.84897,40.81772 23.51562,56.48438 C 39.18228,-247.84897 58.00002,-240 80,-240 h 560 c 21.99998,0 40.81772,-7.84897 56.48438,-23.51562 C 712.15103,-279.18228 720,-298.00002 720,-320 v -560 c 0,-21.99998 -7.84897,-40.81772 -23.51562,-56.48438 C 680.81772,-952.15103 661.99998,-960 640,-960 Z m 0,80 h 560 v 560 H 80 Z" />
  <path
     d="m 398.57771,-480 h 180 v -60 h -120 v -40 h 80 q 17,0 28.5,-11.5 11.5,-11.5 11.5,-28.5 v -60 q 0,-17 -11.5,-28.5 -11.5,-11.5 -28.5,-11.5 h -140 v 60 h 120 v 40 h -80 q -17,0 -28.5,11.5 -11.5,11.5 -11.5,28.5 z"
     id="path2" />
  <path
     d="m 139.95309,-480 h 60 v -90 l 70,90 h 73 l -93,-120 93,-120 h -73 l -70,90 v -90 h -60 z"
     id="path1" />
</svg>
