<?xml version="1.0" encoding="UTF-8" standalone="no"?>
<svg
   viewBox="0 0 20 20"
   version="1.1"
   width="20"
   height="20">
  <g
     transform="matrix(0.14705883,0,0,-0.14705883,-1.9354791,21.99729)"
     id="g10">
    <g
       id="g12"
       transform="matrix(1.62912,0,0,1.6287137,-51.081466,-50.726406)">
      <path
         id="path22"
         d="m 56.67432,87.411607 c 0,6.529191 5.307025,11.837587 11.826801,11.837587 6.527486,0 11.834503,-5.308396 11.834503,-11.837587 0,-2.378859 -1.922164,-4.301534 -4.292688,-4.301534 -2.371371,0 -4.293533,1.922675 -4.293533,4.301534 0,1.785219 -1.455819,3.234527 -3.248282,3.234527 -1.783909,0 -3.240563,-1.449308 -3.240563,-3.234527 0,-2.378859 -1.921322,-4.301534 -4.292693,-4.301534 -2.37137,0 -4.293545,1.922675 -4.293545,4.301534 m 48.99916,-19.890838 c 0,-2.380579 -1.92132,-4.301534 -4.29269,-4.301534 H 61.54761 c -2.37137,0 -4.293545,1.920955 -4.293545,4.301534 0,2.378859 1.922175,4.301535 4.293545,4.301535 h 39.83318 c 2.37137,0 4.29269,-1.922676 4.29269,-4.301535 M 87.060665,85.00182 c -1.326961,1.968208 -0.808195,4.637443 1.159486,5.96476 l 9.957874,6.726784 c 1.952225,1.35738 4.636235,0.80841 5.963205,-1.144324 1.32697,-1.967353 0.80821,-4.637446 -1.15949,-5.964761 l -9.957862,-6.726786 c -0.731768,-0.503435 -1.570892,-0.74742 -2.394563,-0.74742 -1.380218,0 -2.737257,0.67096 -3.56865,1.891747 M 114.32842,58.553438 c 0,-0.81185 -0.32295,-1.591058 -0.89753,-2.16666 l -7.40098,-7.402895 c -0.57459,-0.573887 -1.3536,-0.89777 -2.16696,-0.89777 H 58.485699 c -0.813359,0 -1.592365,0.323883 -2.166956,0.89777 l -7.400976,7.402895 c -0.574592,0.575602 -0.897532,1.35481 -0.897532,2.16666 v 45.359832 c 0,0.81357 0.32294,1.59278 0.897532,2.16666 l 7.400976,7.40462 c 0.574591,0.57388 1.353597,0.89691 2.166956,0.89691 h 45.377251 c 0.81336,0 1.59237,-0.32303 2.16696,-0.89691 l 7.40098,-7.40462 c 0.57458,-0.57388 0.89753,-1.35309 0.89753,-2.16666 z m 6.29903,52.479232 -9.6624,9.66492 c -1.4644,1.46477 -3.45099,2.28779 -5.5209,2.28779 H 56.897629 c -2.071621,0 -4.058213,-0.82388 -5.522605,-2.28951 l -9.655523,-9.66406 c -1.463548,-1.46478 -2.285498,-3.45017 -2.285498,-5.52147 V 56.958086 c 0,-2.071303 0.822808,-4.059266 2.287215,-5.522323 l 9.662396,-9.664919 c 1.464391,-1.464773 3.450124,-2.286937 5.520886,-2.286937 h 48.53965 c 2.06991,0 4.0565,0.822164 5.5209,2.286937 l 9.6624,9.664919 c 1.46439,1.463057 2.2872,3.45102 2.2872,5.522323 v 48.551394 c 0,2.07216 -0.82281,4.05841 -2.2872,5.52319" />
    </g>
  </g>
</svg>
